<?xml version="1.0" standalone="no"?> 
<!DOCTYPE svg PUBLIC "-//W3C//DTD SVG 1.1//EN" "http://www.w3.org/Graphics/SVG/1.1/DTD/svg11.dtd" >
<svg xmlns="http://www.w3.org/2000/svg">
<defs>
  <font id="icons" horiz-adv-x="512">
    <font-face font-family="icons"
      units-per-em="512" ascent="512"
      descent="0" />
    <missing-glyph horiz-adv-x="0" />
    <glyph glyph-name="arrow-continuous"
      unicode="&#xE001;"
      horiz-adv-x="512" d=" M50.6 256.6H-1.9L92.7 353.9L186 256.6H132.8C132.6 175.1 198.5 108.1999999999999 280.1 107.6999999999999C362.2000000000001 107.1999999999999 428.7000000000001 173.1999999999999 429.3 255C430.2 387.3 270.4 453.4 176.9 361.5L119.1 420.2C264.1 563.1 513 460.8 511.8 254.7C511.3 127.3 407.4 24.6 280.1 25.4C152.9 26 50.2 129.3 50.6 256.6z" />
    <glyph glyph-name="arrow-down"
      unicode="&#xE002;"
      horiz-adv-x="512" d=" M254.5 94.6L0 349.2L63 412.2L254.5 220.6L446.2 412.2L509.1 349.2z" />
    <glyph glyph-name="arrow-left"
      unicode="&#xE003;"
      horiz-adv-x="512" d=" M339.2 1.6L82.5 256.7L339.2 512.2L429.5 421.6L264 256.7L429.5 92.2z" />
    <glyph glyph-name="arrow-right"
      unicode="&#xE004;"
      horiz-adv-x="512" d=" M82.5 92.2L248 256.7L82.5 421.6L172.8 512.2L429.5 256.7L172.8 1.6z" />
    <glyph glyph-name="arrow-thin-left"
      unicode="&#xE005;"
      horiz-adv-x="512" d=" M140.7 1.8L107.8 36.1L335.7 256.8L107.8 477.6L140.7 512L404.2 256.8z" />
    <glyph glyph-name="arrow-thin-right"
      unicode="&#xE006;"
      horiz-adv-x="512" d=" M140.7 1.8L107.8 36.1L335.7 256.8L107.8 477.6L140.7 512L404.2 256.8z" />
    <glyph glyph-name="book-text"
      unicode="&#xE007;"
      horiz-adv-x="512" d=" M256.2 399.9C193.4 438.3 97.8 453.8 0 456.6V103.1C84.1 100.6 166.4 88.9 227.7 61.3C236.8 57.2 246.5 55.3 256.1 55.3C265.9 55.3 275.5 57.3 284.5 61.3C345.8 88.9 428.2 100.6 512.1999999999999 103.1V456.6C414.5 453.8 319 438.3 256.2 399.9zM462.7 149.6C411.8 145.9 367 138.4 327.6 127.9C310.9000000000001 123.1 285.6 114.2000000000001 256.1 100.5000000000001C226.8 114.0000000000001 201.4 123.1000000000001 184.6 127.9C145.1 138.5000000000001 100.3 145.9 49.5 149.6V405.1C92.7 401.5 142.9 394.3 186.4 378.6C204.2000000000001 373.4 231.0000000000001 361 256.1 348.4C281.2000000000001 360.9 308 373.5 325.8 378.6C369.3 394.3 419.5 401.5 462.7 405.1L462.7 149.6L462.7 149.6z M256 296.8C233.1 307.6 215.5 315.1 203.4 318.5C182.1 326.1 158.1 332.2 130.3 337.2V297.2C152.5 292.9 173 288.1 190.9 281.7C200.3 279 219.3 271.8 256 253.4C292.6 271.7 311.6 278.8 321.1 281.7C339.4000000000001 288.3 360.2000000000001 293.1 382.8 297.4V337.4C354.7 332.6 330.2 326.4 308.7000000000001 318.6C296.7 314.9 279 307.6 256 296.8z M256 204.5C233.1 215.3 215.5 222.8 203.4 226.2C182.1 233.8 158.1 239.9 130.3 244.9V204.9C152.5 200.6 173 195.8 190.9 189.4C200.3 186.7 219.3 179.5 256 161.1C292.6 179.4 311.6 186.5 321.1 189.4C339.4000000000001 196 360.2000000000001 200.8 382.8 205.1V245.1C354.7 240.1 330.4000000000001 234.1 308.7000000000001 226.3C296.7 222.6 279 215.3 256 204.5z" />
    <glyph glyph-name="book"
      unicode="&#xE008;"
      horiz-adv-x="512" d=" M461.9 449.5V142.3C390.4 137 329.8 124.5 281.2 105.1V353C293.8 360.8 307.7 367.4 322.5 372.9V425.4C297.9 417.6 275.7 407.8 256.5 395.8C194 434.7 99 450.4 1.4 453.3V95.2C85.1 92.7 166.9 80.8 228 52.8C246 44.6 266.6 44.6 284.6 52.8C345.7000000000001 80.8 427.5 92.7 511.2 95.2V455.8C495.7 455.6 476.1 453 461.9 449.5zM231.7 105.2C183.1 124.4 122.6 136.9 51 142.4V401C109.8 396 181.7 384.1 231.7 352.9V105.2zM354.6 418.1C354.6 404.2 354.6 287.1 354.6 287.1L391.4000000000001 332.5L428.2000000000001 300.6V434.1C428.2000000000001 451.9 436.0000000000001 460.8 449.0000000000001 465.3C421.6000000000001 461.2 391.7000000000001 454.3 376.0000000000001 449.3C364.9 445.9 354.6 435.2 354.6 418.1z" />
    <glyph glyph-name="check"
      unicode="&#xE009;"
      horiz-adv-x="512" d=" M198.5 45.9L0 273.3L69.5 333.8L198.1 186.5L438.6 466.1L508.5 405.9z" />
    <glyph glyph-name="circle-three"
      unicode="&#xE00A;"
      horiz-adv-x="512" d=" M135.5 373C135.5 305.6764889956263 190.0764889956262 251.1 257.4 251.1C324.7235110043738 251.1 379.3 305.6764889956263 379.3 373C379.3 440.3235110043738 324.7235110043738 494.9 257.4 494.9C190.0764889956262 494.9 135.5 440.3235110043738 135.5 373z M0 143.5C0 76.1764889956262 54.5764889956263 21.6 121.9 21.6C189.2235110043737 21.6 243.8 76.1764889956262 243.8 143.5C243.8 210.8235110043738 189.2235110043737 265.4 121.9 265.4C54.5764889956263 265.4 0 210.8235110043738 0 143.5z M266.6 143.5C266.6 76.1764889956262 321.1764889956263 21.6 388.5 21.6C455.8235110043738 21.6 510.4 76.1764889956262 510.4 143.5C510.4 210.8235110043738 455.8235110043738 265.4 388.5 265.4C321.1764889956263 265.4 266.6 210.8235110043738 266.6 143.5z" />
    <glyph glyph-name="cirlcle-one-open"
      unicode="&#xE00B;"
      horiz-adv-x="512" d=" M255.5 452C307.7 452 356.8 431.7 393.7 394.7S451 308.7 451 256.5S430.7 155.2 393.7 118.3S307.7 61 255.5 61S154.2 81.3 117.3 118.3S60 204.3 60 256.5S80.3 357.8 117.3 394.7S203.3 452 255.5 452M255.5 512C114.4 512 0 397.6 0 256.5S114.4 1 255.5 1S511 115.4 511 256.5S396.6 512 255.5 512L255.5 512z" />
    <glyph glyph-name="cloud-pen"
      unicode="&#xE00C;"
      horiz-adv-x="512" d=" M445.1 339C432.1 407.5 372 458.3 300.8 458.3C257.1 458.3 216.5 439.2 188.7 406.4C142.4 418.8 93.8 391.7 80.4 345.6C32.4 331.5 -2 286.9 -2 235.3C-2 178.9 38.9 132.1 93.5 122.3L89 98.5L89 98.5L80.1 53.7L221.1 80.5L259.7 120.2H395.1C458.5 120.2 510.1 171.8 510.1 235.2C510 280.1 484.6 319.9 445.1 339zM109.9 120.5V121C111.3 121 112.7 120.5 114.1 120.5H109.9zM117.9 93.2L133.8 170.7L133.8 170.7L196.7 107.8L117.9 93.2zM210.9 121.8L148 184.8L278.2 315L341.1 252.1L210.9 121.8zM355.2 266.1L292.3 329L320.5 357.2L383.4 294.3L355.2 266.1z" />
    <glyph glyph-name="cloud-question-mark"
      unicode="&#xE00D;"
      horiz-adv-x="512" d=" M446.9 337.1C433.9 405.6 373.8 456.4 302.7 456.4C259 456.4 218.4 437.4 190.7 404.6C144.4 417 95.9 390 82.4 343.9C34.3 329.7 0 285.2 0 233.7C0 170.3 51.5 118.8 116.1 118.8H396.8C460.1 118.8 511.6999999999999 170.3 511.6999999999999 233.7C511.8 278.4 486.3 318.2 446.9 337.1zM302.6 171.6C283.6 171.6 268.4000000000001 187.1 268.4000000000001 205.8C268.4000000000001 224.8 283.6 240 302.6 240C321.6 240 336.8 224.8 336.8 205.8C336.8 187.1 321.6 171.6 302.6 171.6zM328.3 271.8V251H274.8V307.7C278.9000000000001 306.8 283 306.2 287.1 306.2C303.7000000000001 306.2 324.8 315.8 324.8 335.1C324.8 347.1 315.7 357 303.5 357C290.1 357 283 347.4 283 334.8H224.9C225.2 379.2000000000001 263.8 403.5 305 403.5C323.4 403.5 341.8 397.7000000000001 356.1 385.4C370.7000000000001 373.1 381.2000000000001 354.1 381.2000000000001 334.9C381.2 301.9 358.2 281.2 328.3 271.8z" />
    <glyph glyph-name="cloud-text"
      unicode="&#xE00E;"
      horiz-adv-x="512" d=" M445.8 305.5C432.9 373.8 373 424.4 302 424.4C258.4 424.4 217.9 405.4 190.3 372.7C144 385.1 95.7 358.1 82.2 312C34.2 298 0 253.6 0 202.1C0 139 51.4 87.6 115.9 87.6H396C459.2 87.6 510.5 139 510.5 202.1C510.5 247 485.2 286.6 445.8 305.5zM395.9 137.5H115.9C78.9 137.5 49.8 166.6 49.8 202.4C49.8 244.8 84.1 277 127.1 269.3C112.8 318.5 181.9 346.3 207.5 309.5C214 327.6 239.6 374.9 302.2 374.9C349.5 374.9 398.4 342.5 400 269.3C431.5 269.1 461.1 246.3 461.1 202.4C460.9 166.5 431.7 137.5 395.9 137.5zM282 170.3H203.7V192.8H282V170.3zM331.6 215.4H203.6V237.9H331.5V215.4L331.6 215.4zM331.6 260.6H203.6V283.1H331.5V260.6L331.6 260.6z" />
    <glyph glyph-name="cog"
      unicode="&#xE00F;"
      horiz-adv-x="512" d=" M507.6 204.2C507.6 204.2 511.8 226.2 511.8 256.3S507.6 308.4 507.6 308.4L459.7 309C454.8000000000001 328.3 447.3000000000001 346.5 437.3000000000001 363.2L470.6000000000001 397.4C470.6000000000001 397.4 458.0000000000001 416 436.7000000000001 437.2C415.5 458.4 397 471 397 471L362.9 437.7C346.1 447.6 327.8 455.3 308.5 460.2L308 507.7C308 507.7 286 511.9 255.9 511.9S203.8 507.8 203.8 507.8L203.2 460.2C183.8 455.2 165.5 447.6 148.8 437.7L114.7 471C114.7 471 96.1 458.4 74.9 437.1C53.7 416 41.1 397.4 41.1 397.4L74.4 363.3C64.5 346.5 56.9 328.4 52 309.1L4.1 308.5C4.1 308.5 -0.1 286.5 -0.1 256.4000000000001S4.1 204.3 4.1 204.3L52.2 203.7C57.2 184.6 64.8 166.4 74.7 149.8L41 115C41 115 53.6 96.4 74.9 75.2C96.2 53.9 114.7 41.3 114.7 41.3L149.3 75.2C165.9 65.5 183.9 57.9 203.2 53L203.8 4.5C203.8 4.5 225.8 0.3 255.9 0.3S308 4.5 308 4.5L308.6 53C327.7000000000001 57.9 345.7000000000001 65.4 362.5 75.2L397.1 41.3C397.1 41.3 415.7000000000001 53.9 436.9000000000001 75.2C458.2 96.5 470.8 115 470.8 115L437.1 149.6C447 166.2000000000001 454.6 184.4 459.6 203.5L507.6 204.2zM255.9 120.4C180.7 120.4 119.5 181.7 119.5 256.8S180.8 393.2 255.9 393.2S392.3 332 392.3 256.8S331.2 120.4 255.9 120.4z M237.3 174.9L171.2 250.7L201.8 283.5L239.5 240.4L310 322.2L340.8 295.1z" />
    <glyph glyph-name="cross-thick"
      unicode="&#xE010;"
      horiz-adv-x="512" d=" M510.9 416.9L415.8 512L255.5 351.8L95.1 512L0 416.9L160.2 256.5L0 96.2L95.1 1.1L255.5 161.3L415.8 1.1L510.9 96.2L350.7 256.5z" />
    <glyph glyph-name="cross-thin"
      unicode="&#xE011;"
      horiz-adv-x="512" d=" M510.3 441.3L450.2 503.7L255.2 316.4L60.3 503.7L0 441.3L192.6 256.1L0 70.9L60.3 8.3L255.2 195.8L450.2 8.3L510.3 70.9L317.9 256.1z" />
    <glyph glyph-name="curly-left"
      unicode="&#xE012;"
      horiz-adv-x="512" d=" M274.4 -0.6C212.9 54.5 171.7 162.4 171.7 255.8S212.8 456.9 274.2 512L340.4 461.6C299.3 393.8 283.5 333.6 283.5 255.8C283.5 178.5 299.2 117.7000000000001 340.4 51L274.4 -0.6z" />
    <glyph glyph-name="curly-right"
      unicode="&#xE013;"
      horiz-adv-x="512" d=" M171.7 51C212.9 117.7 228.6 178.5 228.6 255.8C228.6 333.6 212.8 393.8 171.7 461.6L237.8 512C299.2 456.9 340.3 349.1 340.3 255.8S299.1 54.5 237.6 -0.5999999999999L171.7 51z" />
    <glyph glyph-name="document-plus"
      unicode="&#xE014;"
      horiz-adv-x="512" d=" M316.1 75.8L65.8 75.7L65.8 441.3L338.5 441.3L338.5 304.7L402.2 305.1L402.2 505L2 505L2 12L316.4 12z M510.7 182L427 182L427 265.7L377.2 265.7L377.2 182L293.5 182L293.5 132.2L377.2 132.2L377.2 48.3L427 48.3L427 132.2L510.7 132.2z" />
    <glyph glyph-name="documents"
      unicode="&#xE015;"
      horiz-adv-x="512" d=" M303.5 422.2H124.3V66.5H170.5V372.6H349.7L303.5 422.2zM220.2 512H41V134H87.2V462.5H266.4L220.2 512zM357.8 281.4V212.3H422.5V51.1H256V281.4H357.8M386.8 330.9H209.8V1.3H468.6V243.2L386.8 330.9z" />
    <glyph glyph-name="dotted-line"
      unicode="&#xE016;"
      horiz-adv-x="512" d=" M0 256C0 248.0470996024366 6.4470996024366 241.6 14.4 241.6C22.3529003975634 241.6 28.8 248.0470996024366 28.8 256C28.8 263.9529003975635 22.3529003975634 270.4 14.4 270.4C6.4470996024366 270.4 0 263.9529003975635 0 256z M80.3 256C80.3 248.0470996024366 86.7470996024366 241.6 94.7 241.6C102.6529003975634 241.6 109.1 248.0470996024366 109.1 256C109.1 263.9529003975635 102.6529003975634 270.4 94.7 270.4C86.7470996024366 270.4 80.3 263.9529003975635 80.3 256z M160.6 256C160.6 248.0470996024366 167.0470996024366 241.6 175 241.6C182.9529003975635 241.6 189.4 248.0470996024366 189.4 256C189.4 263.9529003975635 182.9529003975635 270.4 175 270.4C167.0470996024366 270.4 160.6 263.9529003975635 160.6 256z M241.9 256C241.9 248.0470996024366 248.3470996024366 241.6 256.3 241.6C264.2529003975635 241.6 270.7 248.0470996024366 270.7 256C270.7 263.9529003975635 264.2529003975635 270.4 256.3 270.4C248.3470996024366 270.4 241.9 263.9529003975635 241.9 256z M321.2000000000001 256C321.2000000000001 248.0470996024366 327.6470996024366 241.6 335.6 241.6C343.5529003975635 241.6 350 248.0470996024366 350 256C350 263.9529003975635 343.5529003975635 270.4 335.6 270.4C327.6470996024366 270.4 321.2000000000001 263.9529003975635 321.2000000000001 256z M321.2000000000001 256C321.2000000000001 248.0470996024366 327.6470996024366 241.6 335.6 241.6C343.5529003975635 241.6 350 248.0470996024366 350 256C350 263.9529003975635 343.5529003975635 270.4 335.6 270.4C327.6470996024366 270.4 321.2000000000001 263.9529003975635 321.2000000000001 256z M402.5 256C402.5 248.0470996024366 408.9470996024366 241.6 416.9 241.6C424.8529003975634 241.6 431.3 248.0470996024366 431.3 256C431.3 263.9529003975635 424.8529003975634 270.4 416.9 270.4C408.9470996024366 270.4 402.5 263.9529003975635 402.5 256z M481.8 256C481.8 248.0470996024366 488.2470996024365 241.6 496.2 241.6C504.1529003975634 241.6 510.6 248.0470996024366 510.6 256C510.6 263.9529003975635 504.1529003975634 270.4 496.2 270.4C488.2470996024365 270.4 481.8 263.9529003975635 481.8 256z" />
    <glyph glyph-name="eraser"
      unicode="&#xE017;"
      horiz-adv-x="512" d=" M419.6 449.5L362.5 499L360.4 500.6C349 507.9 335.3 512 320.5 512C302 512 284.1 505.7 271.4 494.5L101 329.5C90.2 320 57.2 287.7 57 248.9C57 212.6 60.1 120.6 60.4 117.5C60.3 112 60.5 62.3 96.4 38.9L138.1 11.7C149.5 4.4 163.2 0.3 178 0.3L178 0.3C196.5 0.3 214.4 6.6 227.2000000000001 17.9L404.3000000000001 176.6C424.4000000000001 194.1 443.7000000000001 228.1 448.3000000000001 254.1L454.2 369.5C458.6 398.5 443.6 432.9 419.6 449.5zM199.9 48.1C190.5 40 170.8 38.6 160.2 45.4L118.4 72.6C103.7 82.4 100.6 108.1 100.6 118.1C100.6 119 97.2 213.3 97.2 249C97.2 267 113.8 287.6 127.7 300.1L236 404.8L228.3 232.2L319.6 155.2L199.9 48.1z" />
    <glyph glyph-name="eye"
      unicode="&#xE018;"
      horiz-adv-x="512" d=" M259 341.7C243 341.7 228.1 337.4 215.4 329.7L259 255.8L186.8 302.4C178.1 288.9 173.1 273 173.1 255.8C173.1 208.3 211.6 169.9 259 169.9C306.5 169.9 344.9 208.4 344.9 255.8S306.3 341.7 259 341.7z M256.6 404.5C166.2 404.5 67.9 357.8 1.3 264.4C61.2 176.6 155.7 107.5 256.6 107.5C361.1 107.5 455.6 173.1 510.7 264.9C446.4 358.3 347.4 404.5 256.6 404.5zM256.6 150.7C177.1 150.7 104.5 202.9 55.3 263.6C80.3 292.1 151.8 361.1 256.6 361.1C337.2000000000001 361.1 409.3 320.7 458.2 263.1C435.1 232 364.9 150.7 256.6 150.7z" />
    <glyph glyph-name="flask"
      unicode="&#xE019;"
      horiz-adv-x="512" d=" M154.9 487.2C154.9 501 166.1 512 179.7 512H331.9C345.7 512 356.7 500.8 356.7 487.2S345.5 462.4 331.9 462.4H179.7C166.1 462.2 154.9 473.4 154.9 487.2zM397.6 -0.1H114.3C75.9 -0.1 50.7 40.1 67.2 74.7L147.9 242.4C170.3 289.1 182 340.1 182 391.8V425.1H231.3C231.3 389.7 235.5 325.8 203.9 246.5H273.2L361.3 61.6C371 41.3 399.7 52.3 389.8 73.2000000000001C380.9 92.0000000000001 364 127.7000000000001 319.1 220.9C274.4 313.8000000000001 280.3 390 280.3 425.2000000000001H330V392.0000000000001C330 340.3000000000001 341.7 289.1 364.1 242.6L444.8 74.9C461.2 40 436 -0.1 397.6 -0.1zM199 91.7C199 107.1 186.6 119.4 171.3 119.4C155.9 119.4 143.6 107 143.6 91.7C143.6 76.3 156 64 171.3 64C186.6 63.9 199 76.4 199 91.7zM237.8 156.5C237.8 165.8 230.2 173.4 220.9 173.4S204 165.8 204 156.5C204 147.2 211.6 139.6 220.9 139.6S237.8 147.2 237.8 156.5zM285.2 85C285.2 96.9 275.5 106.5 263.7 106.5C251.8 106.5 242.2 96.8 242.2 85C242.2 73.1 251.9 63.5 263.7 63.5C275.5 63.5 285.2 73.1 285.2 85z" />
    <glyph glyph-name="info"
      unicode="&#xE01A;"
      horiz-adv-x="512" d=" M254.8 512C114 512 0 397.8 0 257.2S114.2 2.4 254.8 2.4S509.6 116.4 509.6 257.2S395.6 512 254.8 512zM283.1 120.4H231.9000000000001V323.2H283.0000000000001L283.1 120.4L283.1 120.4zM257.7 352.1H257.3C240.2 352.1 229.1 364.5 229.1 379.6C229.1 395.4 240.7 407.4 257.9000000000001 407.4C275.4000000000001 407.4 286.1 395.3 286.7000000000001 379.6C286.3 364.7 275.2 352.1 257.7 352.1z" />
    <glyph glyph-name="is"
      unicode="&#xE01B;"
      horiz-adv-x="512" d=" M0 207H510.6V122.4H0z M0 389.6H510.6V305H0z" />
    <glyph glyph-name="keyboard-arrow-down"
      unicode="&#xE01C;"
      horiz-adv-x="512" d=" M390.7 464V305.7H473.2C488.4 305.7 501.5 297 507.4 282.9C513.1999999999999 268.8 510.2 253.4 499.4 242.6L281.3 24.6C274.3 17.6 265 13.8 255.1 13.8L255.1 13.8C245.2 13.8 235.9000000000001 17.6 228.9000000000001 24.6L10.9 242.6C0.1 253.4000000000001 -2.9 268.8 2.9 282.9000000000001C8.7 297 21.8 305.7000000000001 37.1 305.7000000000001H119.6V464C119.6 487.6 138.8 506.7 162.3 506.7H348C371.5 506.8 390.7 487.6 390.7 464zM265.6 40.2L483.7 258.3C490.2 264.8 487.8000000000001 272.3 486.9 274.5S482.4 283.6 473.2 283.6H379.6C373.5 283.6 368.5 288.6 368.5 294.7V464C368.5 475.3 359.3 484.6 347.9 484.6H162.3C151 484.6 141.7 475.4 141.7 464V294.6C141.7 288.5 136.7 283.5 130.6 283.5H37.1C27.9 283.5 24.3 276.5 23.4 274.4C22.5 272.3 20.1 264.7000000000001 26.6 258.2000000000001L244.7 40.1C247.5 37.3 251.2 35.8 255.2 35.8C259.1 35.9 262.8 37.4 265.6 40.2z" />
    <glyph glyph-name="keyboard-arrow-left"
      unicode="&#xE01D;"
      horiz-adv-x="512" d=" M458.9 121.3H300.7V38.8C300.7 23.6 292 10.5 277.9 4.6C263.8 -1.1999999999999 248.4 1.8 237.6 12.6L19.4 230.7C12.4 237.7 8.6 247 8.6 256.9L8.6 256.9C8.6 266.8 12.4 276.1 19.4 283.1L237.5 501.1C248.3 511.9 263.7 514.9 277.8 509.1C291.9000000000001 503.3 300.6 490.2 300.6 474.9V392.4H458.9C482.5000000000001 392.4 501.6 373.2000000000001 501.6 349.7V164C501.7 140.5 482.5 121.3 458.9 121.3zM35.1 246.4L253.2 28.3C259.7 21.8 267.2 24.1999999999999 269.4 25.1C271.5 25.9999999999999 278.5 29.6 278.5 38.8V132.4C278.5 138.5 283.5 143.5 289.6 143.5H459C470.3 143.5 479.6 152.7 479.6 164.1V349.7C479.6 361 470.4 370.3 459 370.3H289.6C283.5 370.3 278.5 375.3 278.5 381.4V474.9C278.5 484.1 271.5 487.7 269.4 488.6C267.3 489.5 259.7 491.9 253.2 485.4L35.1 267.4C32.3 264.6 30.8 260.9 30.8 256.9C30.8 252.9 32.3 249.2 35.1 246.4z" />
    <glyph glyph-name="keyboard-arrow-right"
      unicode="&#xE01E;"
      horiz-adv-x="512" d=" M8.6 164V349.7C8.6 373.3 27.8 392.4 51.3 392.4H209.6V474.9C209.6 490.1 218.3 503.2 232.4000000000001 509.1C246.5000000000001 514.9 261.9000000000001 511.9 272.7000000000001 501.1L490.8 283C497.8 276 501.6 266.7 501.6 256.8L501.6 256.8C501.6 246.9000000000001 497.8 237.6 490.8 230.6L272.8 12.7C262 1.9 246.6 -1.1 232.5 4.7C218.4 10.5 209.7 23.6 209.7 38.9V121.4H51.3C27.8 121.3 8.6 140.5 8.6 164zM479.5 256.9C479.5 260.9 478 264.6 475.2 267.4L257.1 485.4C250.6 491.9 243.1 489.5 240.9000000000001 488.6C238.8000000000001 487.7 231.8000000000001 484.1 231.8000000000001 474.9V381.3C231.8000000000001 375.2000000000001 226.8000000000001 370.2000000000001 220.7000000000001 370.2000000000001H51.3C40 370.2000000000001 30.7 361 30.7 349.6V164C30.7 152.7 39.9 143.4 51.3 143.4H220.7C226.8 143.4 231.8 138.4 231.8 132.3V38.6999999999999C231.8 29.4999999999999 238.8 25.8999999999999 240.9 24.9999999999999C243 24.1 250.6 21.6999999999999 257.1 28.1999999999999L475.1999999999999 246.3C478 249.2 479.5 252.9 479.5 256.9z" />
    <glyph glyph-name="keyboard-arrow-up"
      unicode="&#xE01F;"
      horiz-adv-x="512" d=" M348 13.7H162.3C138.7 13.7 119.6 32.9 119.6 56.4V214.7H37.1C21.9 214.7 8.8 223.4 2.9 237.5C-2.9 251.6 0.1 267 10.9 277.8L229 495.9C236 502.9 245.3 506.7 255.2 506.7L255.2 506.7C265.1 506.7 274.4 502.9 281.4 495.9L499.5 277.8C510.3 267 513.3 251.6 507.5 237.5C501.7 223.4 488.6 214.7 473.3 214.7H390.8V56.4C390.7 32.9 371.5 13.7 348 13.7zM255.1 484.6C251.1 484.6 247.4 483.1 244.6 480.3L26.6 262.2C20.1 255.7 22.5 248.2 23.4 246C24.3 243.9 27.9 236.9 37.1 236.9H130.7C136.8 236.9 141.8 231.9 141.8 225.8V56.4C141.8 45.1 151 35.8 162.4 35.8H348C359.3 35.8 368.6 44.9999999999999 368.6 56.4V225.8C368.6 231.9000000000001 373.6 236.9000000000001 379.7000000000001 236.9000000000001H473.3000000000001C482.5000000000001 236.9000000000001 486.1000000000001 243.9000000000001 487.0000000000001 246.0000000000001C487.9 248.1000000000001 490.3000000000001 255.7000000000001 483.8000000000001 262.2000000000001L265.6 480.3C262.8 483.1 259.1 484.6 255.1 484.6z" />
    <glyph glyph-name="keyboard-backspace"
      unicode="&#xE020;"
      horiz-adv-x="512" d=" M500.1 413H161.4C156.8 413 50.8 320.2 7.4 282C-2.4 273.4 -2.4 258.3 7.3 249.7C50.6 211.1 156.8 116.9 161.4 116.9H500.2C506.0000000000001 116.9 510.7 121.6 510.7 127.4V402.5C510.7 408.3 505.9 413 500.1 413zM491.5 136H167C154.3 145.8 110.3 183.5 19.9 264C19.3 264.5 19.1 265.1 19.1 265.8C19.1 266.5 19.4 267.1 19.9 267.6C110.3 347.1 154.3 384.2000000000001 166.9 393.8H491.5V136z M312.8 206.9L357.1 251.2L401.2 207.1L414.9 220.8L370.8 264.9L415.1 309.2L401.4 323L357.1 278.7L313 322.8L299.3 309L343.3 264.9L299 220.6z" />
    <glyph glyph-name="keyboard-close"
      unicode="&#xE021;"
      horiz-adv-x="512" d=" M474 309.4V114.2000000000001H37.2V309.4H474zM511.2 346.7H0V77H511.2V346.7zM332.8 291.1H379.4000000000001V251.8H332.8V291.1zM345.3 231.5V192.2H298.7V231.5H345.3zM265.8 291.1H312.4000000000001V251.8H265.8V291.1zM278.3 231.5V192.2H231.7V231.5H278.3zM198.8 291.1H245.4V251.8H198.8V291.1zM211.3 231.5V192.2H164.7V231.5H211.3zM131.8 291.1H178.4V251.8H131.8V291.1zM64.8 291.1H111.4V251.8H64.8L64.8 291.1zM64.8 231.5H144.3V192.2H64.8V231.5zM365.7 132.5H144.3V171.8H365.7000000000001L365.7 132.5L365.7 132.5zM446.4 192.2H365.7V231.5H446.4V192.2zM446.4 251.9H399.8V291.2H446.4V251.9zM348.7 390.1H162.6L255.3 468L348.7 390.1z" />
    <glyph glyph-name="keyboard-equals"
      unicode="&#xE022;"
      horiz-adv-x="512" d=" M384.7 246.6V197H127.3V246.6H384.7z M384.7 346.6V297H127.3V346.6H384.7z" />
    <glyph glyph-name="keyboard-exponent"
      unicode="&#xE023;"
      horiz-adv-x="512" d=" M164.5 272.1C205 334 226.4 354.8 251.8 354.8C265.7 354.8 275.5 346.1 275.5 333.4C275.5 321.2000000000001 267.4 312.6 255.8 312.6C244.8 312.6 239.6 322.4 225.7 322.4C215.3 322.4 194.5 297 169 252.4C169 248.4 170.2 240.3 173.6 226.4L192.1 148.9C196.2 132.7 201.4 125.2 209.5 125.2C217 125.2 223.4 131 236.7 148.4C241.9 155.3 244.2 158.8 248.9 164.6L257.6 159.4C224 107.3 209 93.5 187 93.5C168.5 93.5 159.8 103.9 152.9 132.8L136.1 201.6L85.2 132.8C59.7 98.7 48.2 93.5 30.2 93.5S1.3 102.7 1.3 117.8C1.3 129.4 9.4 138.6 21 138.6C26.2 138.6 32 136.3 39.5 132.2000000000001C45.3 128.7000000000001 51.1 127.0000000000001 54.5 127.0000000000001C60.9 127.0000000000001 71.9 138.0000000000001 84 155.4L131.4 222.5L115.2 294.2C107.1 328.9 103.1 333.5 88.5999999999999 333.5C83.9999999999999 333.5 76.9999999999999 332.3 65.9999999999999 329.4L55.5999999999999 326.5L53.8999999999999 335.8L60.2999999999999 338.1C95.5999999999999 350.8 114.6999999999999 354.9000000000001 128 354.9000000000001C142.5 354.9000000000001 149.4 344.5 157.5 305.1L164.5 272.1z M489.8 428.7V302.7H363.8V428.7H489.8M512 450.9H341.6V280.5H512V450.9L512 450.9z" />
    <glyph glyph-name="keyboard-fraction"
      unicode="&#xE024;"
      horiz-adv-x="512" d=" M419.1 483.8V351.7000000000001H103.4V483.8H419.1M447.3 512H75.3V323.5H447.3V512L447.3 512z M419.1 161.5V29.4H103.4V161.5H419.1M447.3 189.6H75.3V1.1H447.3V189.6L447.3 189.6z M10.5 268.7H512V245.2H10.5z" />
    <glyph glyph-name="keyboard-greater-than-or-equal"
      unicode="&#xE025;"
      horiz-adv-x="512" d=" M123.9 414.3L123.9 380.6L335 284.8L124 189L124 155.7L376.1 269.5L376.1 300.2z M124 125.3H376.1V97.7H124z" />
    <glyph glyph-name="keyboard-greater-than"
      unicode="&#xE026;"
      horiz-adv-x="512" d=" M123.9 351.5V385.2L376.1 271.2V240.5L124 126.6V159.9L335 255.7000000000001L123.9 351.5z" />
    <glyph glyph-name="keyboard-less-than-or-equal"
      unicode="&#xE027;"
      horiz-adv-x="512" d=" M376.1 414.3L376.1 380.6L165 284.8L376 189L376 155.7L123.9 269.5L123.9 300.2z M123.9 125.3H376V97.7H123.9z" />
    <glyph glyph-name="keyboard-less-than"
      unicode="&#xE028;"
      horiz-adv-x="512" d=" M165 255.7L376 159.9V126.6L123.9 240.4V271.1L376.1 385.1V351.4L165 255.7z" />
    <glyph glyph-name="keyboard-minus"
      unicode="&#xE029;"
      horiz-adv-x="512" d=" M384.7 285.9V236.3H127.3V285.9H384.7z" />
    <glyph glyph-name="keyboard-multiply"
      unicode="&#xE02A;"
      horiz-adv-x="512" d=" M202.9 256C202.9 226.6736797839849 226.6736797839849 202.9 256 202.9C285.3263202160151 202.9 309.1 226.6736797839849 309.1 256C309.1 285.3263202160151 285.3263202160151 309.1 256 309.1C226.6736797839849 309.1 202.9 285.3263202160151 202.9 256z" />
    <glyph glyph-name="keyboard-pi"
      unicode="&#xE02B;"
      horiz-adv-x="512" d=" M385 401.6V184C385 121.3 390.1 100.4 395.1 84.5H361.2000000000001C356.9000000000001 93.1 350.4000000000001 116.2 350.4000000000001 178.9V401.6H212.7C208.4 303.6 183.9 142.9 157.2 84.5H124.8C153.6 152.2 175.2 298.6 179.6 401.6C147.2 401.6 122 399.4000000000001 103.9 394.4000000000001L97.4 416C113.2 423.9 134.2 430.4 181 430.4H441.2L436.1 401.6H385z" />
    <glyph glyph-name="keyboard-plus"
      unicode="&#xE02C;"
      horiz-adv-x="512" d=" M384.7 285.9V236.3H127.3V285.9H384.7z M231.2 389.8H280.8V132.3H231.2L231.2 389.8L231.2 389.8z" />
    <glyph glyph-name="keyboard-square-root"
      unicode="&#xE02D;"
      horiz-adv-x="512" d=" M117.6 88.4H98.7L39.8 234.7C34.9 247.2 31.7 251.3 26.7 251.3C21.5 251.3 14.5 246.4000000000001 6.7 238.8L0 248.9L47.9 285.8H61L115.6 147.6H115.9L231.9 438.2H257.2L117.6 88.4z M485.5 350.1V191.6H290.3V350.1H485.5M503 367.5H272.9V174.1H503V367.5L503 367.5z M231.7 439.8H511.4V416.3H231.7z" />
    <glyph glyph-name="keyboard-x"
      unicode="&#xE02E;"
      horiz-adv-x="512" d=" M286 311.1C332.6 382.3 357.2 406.3 386.5 406.3C402.5 406.3 413.8 396.3 413.8 381.7C413.8 367.7 404.5 357.8 391.1 357.8C378.4000000000001 357.8 372.5 369.1 356.5 369.1C344.5 369.1 320.6 339.9 291.2 288.5C291.2 283.9 292.6 274.6 296.5 258.6L317.8 169.4C322.5 150.8 328.5 142.1 337.8 142.1C346.4000000000001 142.1 353.8 148.8 369.1 168.8C375.1 176.6999999999999 377.7000000000001 180.8 383.1 187.4L393.1 181.4C354.4000000000001 121.4 337.2000000000001 105.6 311.8 105.6C290.5 105.6 280.5 117.6 272.6 150.8L253.4 230L194.8 150.8C165.5 111.6 152.2 105.6 131.5 105.6S98.2 116.2000000000001 98.2 133.6C98.2 147 107.5 157.5 120.9 157.5C126.9 157.5 133.6 154.9 142.2 150.1C148.9 146.1 155.6 144.1 159.5 144.1C166.9 144.1 179.5 156.8 193.5 176.8L248.1 254L229.5000000000001 336.5C220.2 376.4 215.6 381.7 198.9 381.7C193.6 381.7 185.5 380.3 172.9 377L160.9 373.7L158.9 384.4L166.3000000000001 387C206.9 401.6 228.9000000000001 406.3 244.2000000000001 406.3C260.9000000000001 406.3 268.8000000000001 394.3 278.2000000000001 349L286 311.1z" />
    <glyph glyph-name="label-shade"
      unicode="&#xE02F;"
      horiz-adv-x="512" d=" M512 0.3L72.9 512L512 512z" />
    <glyph glyph-name="label"
      unicode="&#xE030;"
      horiz-adv-x="512" d=" M509.1 153.8L0 153.8L0 358.2L509.1 358.2L468.9 255.1z" />
    <glyph glyph-name="less-then"
      unicode="&#xE031;"
      horiz-adv-x="512" d=" M456.6 2.7L0 249.3L455.3 512L511.2 415.1L229.4 252.5L509.7 101.2z" />
    <glyph glyph-name="lightbulb"
      unicode="&#xE032;"
      horiz-adv-x="512" d=" M300.7 101.8H211C204.6 101.8 199.7 96.7 199.7 90.5C199.7 84.1 204.8 79.2 211 79.2H300.7C307.1 79.2 312 84.3 312 90.5C312.1 96.8 307.1 101.8 300.7 101.8zM298.8 64H213.2C206.8 64 201.9 58.9 201.9 52.7C201.9 46.3 207 41.4 213.2 41.4H298.8C305.2 41.4 310.1 46.5 310.1 52.7C310.1 58.8 305 64 298.8 64zM213.7 26.5C235.8 5.9 238.1 1.8 246.9 1.8H264C272.6 1.8 274.8 5.5 298.1 26.5H213.7zM385.7 299.6C385.7 222.5 319.4 179.2 319.4 118.3L286.8 128C286.8 197.8 348 237.4 348 299.4C348 415.4 164.1999999999999 415.6 164.1999999999999 299.4C164.1999999999999 237.5 224.1999999999999 199.4 225.6 128L192.8 118.3C192.8 179.1999999999999 126.5 222.4 126.5 299.6C126.1 465.2 385.7 465.3 385.7 299.6zM272.4 456.1H241.3V512H272.3V456.1H272.4zM378.8 482.3L351.5 497L324.2 446.1L351.6 431.4L378.8 482.3zM458.2 405.4L440.2 430.6L390.4 394.9L408.4 369.7000000000001L458.2 405.4zM463.7 209.6L407.8 232.3L396.2 203.6L452.1 180.9L463.7 209.6zM482.3 319.3H419.1V288.3H482.3V319.3zM187.8 446L160.5 496.9L133.1 482.2L160.4 431.3L187.8 446zM121.5 395L71.9 430.5L53.9 405.3L103.5 369.8L121.5 395zM116.3 206.4L103.6 234.6L47.7 209.5L60.4 181.3L116.3 206.4zM92.9 319.3H29.7V288.3H92.9V319.3z" />
    <glyph glyph-name="math-elements"
      unicode="&#xE033;"
      horiz-adv-x="512" d=" M309.4 429.7H239.2L164.2 146.7C162.5 139.6 161.2 132.7 160 126.3C158.3 132.3 156.5 138.5 154.6 144.9L104.8 293.2000000000001L0 247.4L17.3 194.7L55.9 210.6L130.8 6.5H167L273.5 395.3H493.3L509.8 429.5H309.4V429.7z M69.3 341.5H69.8C74 333.3 83.5 328.8 93.3 328.8C121.3 328.8 141.3 355.6 145.2 383.1C149.3 409.7000000000001 136.7 436.4000000000001 109.8 436.4000000000001C99.8 436.4000000000001 89.1 431.7000000000001 81.8 423.9000000000001L93.9 506.6H66.9L41 332H68.1L69.3 341.5zM99.4 410.8C113.3 410.8 119.5 396.1 117.6 382.7C115.6 369.1 104.9 354.3 91 354.3S70.9 369.1 72.8 382.7C74.8 396.3 85.5 410.8 99.4 410.8z M440.6 109.6C437.1 109.6 435.5 112.2000000000001 435.5 116.1C435.5 126.8 438.1 139.4 448.3 173.4L480.7 281.4000000000001L432.9 278.4000000000001L425.7 253.0000000000001H425.2C421.3 275.0000000000001 411.9 284.0000000000001 393.3 284.0000000000001C365.3 284.0000000000001 336 263.7000000000001 313.3 233.6000000000001C291.3 204.7000000000001 275.8 168.6000000000001 275.8 134.2000000000001C275.8 101.5000000000001 294.3 79.4 322.3 79.4C348.6 79.4 368.8 95.3 392.9 136.3C387.8 118.6 386.9 112.5 386.9 106.6C386.9 88.1 398.1 79.1 414 79.1C434.3 79.1 456.2 92.8 481.2 133.4L472.1 139.9C454.3 116.1 447.5 109.6 440.6 109.6zM384.1 142.4C372.5 121.4 358.7000000000001 110.2 347 110.2C335.8 110.2 328.5 117.4 328.5 134.7C328.5 151.1 337.6 186 352.6 216.6C364.7000000000001 241.1 381 266.1 399.1 266.1C408.6 266.1 415 257.5 415 245.8C415.1 219.9 400.9 172.1 384.1 142.4z" />
    <glyph glyph-name="menu"
      unicode="&#xE034;"
      horiz-adv-x="512" d=" M0 490H510.6V398.9H0z M0 307.9H510.6V216.8H0z M0 125.8H510.6V34.7H0z" />
    <glyph glyph-name="min"
      unicode="&#xE035;"
      horiz-adv-x="512" d=" M0 318.4H511.1V206.9H0z" />
    <glyph glyph-name="more-then"
      unicode="&#xE036;"
      horiz-adv-x="512" d=" M54.5 1.2L511.9 248.3L56 511.3L0 414.3L282 251.5L1.3 99.9z" />
    <glyph glyph-name="nav-left"
      unicode="&#xE037;"
      horiz-adv-x="512" d=" M104 256.2L370 512L403.2 477.4L173.1 256.2L403.2 35L370 0.4z" />
    <glyph glyph-name="nav-right"
      unicode="&#xE038;"
      horiz-adv-x="512" d=" M137.1 0.4L104 35L334 256.2L104 477.4L137.1 512L403.2 256.2z" />
    <glyph glyph-name="pencil-document"
      unicode="&#xE039;"
      horiz-adv-x="512" d=" M277.4 66L66.2 66L66.2 445.8L349.4 445.8L349.4 333.9L415.6 267.4L415.6 512L0 512L0 -0.2L345.6 -0.2z M473.5 114.6L473.5 114.6L493.6 16.3L393.5 34.7L393.5 34.7L473.5 114.6zM156.8 271.4L192.6 235.6L272.5 315.5L236.7 351.3L156.8 271.4zM290.5 297.6L210.5 217.6L375.6 52.5L455.6 132.4L290.5 297.6z" />
    <glyph glyph-name="pencil"
      unicode="&#xE03A;"
      horiz-adv-x="512" d=" M479.9 153.2L479.9 153.2L510.4 8.5L359.6 35.7L359.6 35.7L479.9 153.2zM2.2 384.3L56.2 331.6L176.6 449.3L122.6 502L2.2 384.3zM203.7 422.8L83.2 305.2L332.3 62L452.8 179.7L203.7 422.8z" />
    <glyph glyph-name="person"
      unicode="&#xE03B;"
      horiz-adv-x="512" d=" M277.2 224.4C107.7 224.4 99.4 47.6 99.4 47.6C142.3 -1.3 271.6 0.8 271.6 0.8S400.9 -1.3000000000001 443.8 47.6C443.8 47.6 446.7000000000001 224.4 277.2 224.4z M148.6 389.5C148.6 321.5689757708124 203.6689757708124 266.5 271.6 266.5C339.5310242291877 266.5 394.6 321.5689757708124 394.6 389.5C394.6 457.4310242291876 339.5310242291877 512.5 271.6 512.5C203.6689757708124 512.5 148.6 457.4310242291876 148.6 389.5z" />
    <glyph glyph-name="plus"
      unicode="&#xE03C;"
      horiz-adv-x="512" d=" M511.2 298.8L297.9 298.8L297.9 512L213.2 512L213.2 298.8L0 298.8L0 214.1L213.2 214.1L213.2 0.8L297.9 0.8L297.9 214.1L511.2 214.1z" />
    <glyph glyph-name="search"
      unicode="&#xE03D;"
      horiz-adv-x="512" d=" M282.1 506.6C157.3 506.6 55.8 405.1 55.8 280.3C55.8 232.7 70.5 188.6 95.8 152.1L0 56.4L49.7 6.7L144.2 101.3C182.4 71.9 230.2 54.3 282.1 54.3C406.9000000000001 54.3 508.4 155.8 508.4 280.6S406.9 506.6 282.1 506.6zM282.1 123.5C195.7 123.5 125.2 193.8 125.2 280.4S195.5 437.3 282.1 437.3C368.5 437.3 439 367 439 280.4S368.7 123.5 282.1 123.5z" />
    <glyph glyph-name="splitter"
      unicode="&#xE03E;"
      horiz-adv-x="512" d=" M188.4 417.8L-0.6 255.5L188.4 93.2L230.7 142.5L99.1 255.5L230.7 368.5z M321.4 417.8L279.1 368.5L410.7 255.5L279.1 142.5L321.4 93.2L510.4 255.5z" />
    <glyph glyph-name="star"
      unicode="&#xE03F;"
      horiz-adv-x="512" d=" M369.2 291L299.1 306.1L265 370.8C262.4 376.2000000000001 258.9 378.8 255.4 378.8S248.4 376.1 245.8 370.8L211.7 306.1L141.4 291C129.6 289.3 126.9 281.1 135.5 272.7L187.1 228.7L175.3 150.2C173.3 138.4 180.3 133.3 190.8 138.9L255.2 189.6L319.6 138.9C330.2000000000001 133.3 337.2000000000001 138.4 335.1 150.2L323.3 228.7L374.9000000000001 272.7C383.7 281.1 381 289.3 369.2 291z" />
    <glyph glyph-name="stars-one"
      unicode="&#xE040;"
      horiz-adv-x="512" d=" M358.4 286.9L295.4 300.5L264.8 358.6C262.4 363.4 259.3 365.8 256.2 365.8C253 365.8 249.8999999999999 363.4 247.5 358.6L216.9 300.5L153.8 286.9C143.2 285.3 140.8 278 148.5 270.4L194.9 230.9L184.3 160.3C182.5 149.6999999999999 188.7 145.1999999999999 198.2 150.1999999999999L256 195.8L313.8999999999999 150.1999999999999C323.3999999999999 145.1999999999999 329.7 149.6999999999999 327.8999999999999 160.3L317.2999999999999 230.9L363.7999999999999 270.5C371.4 278.1 369 285.4 358.4 286.9z" />
    <glyph glyph-name="stars-three"
      unicode="&#xE041;"
      horiz-adv-x="512" d=" M358.2 406.7L295.2 420.3L264.6 478.4C262.2 483.2 259.1 485.6 256 485.6C252.9 485.6 249.8 483.2 247.4 478.4L216.8 420.3L153.8 406.7C143.2 405.1 140.8 397.8 148.5 390.2L194.7 350.7L184.1 280.1C182.3 269.5 188.5 265 198 270L255.8 315.6L313.7 270C323.2 265 329.5 269.5 327.7 280.1L317.1 350.7L363.6 390.3C371.2 397.9 368.8 405.2 358.2 406.7z M214.6 179.9L151.6 193.5L121 251.6C118.6 256.4000000000001 115.5 258.8 112.4 258.8C109.3 258.8 106.2 256.4 103.8 251.6L73.2 193.5L10.2 179.9C-0.4 178.3 -2.8 171 4.9 163.4L51.1 123.9L40.5 53.3C38.7 42.6999999999999 44.9 38.1999999999999 54.4 43.1999999999999L112.2 88.8L170.1 43.1999999999999C179.6 38.1999999999999 185.9 42.6999999999999 184.1 53.3L173.5 123.9L220 163.5C227.6 171.1 225.2 178.4 214.6 179.9z M501.8 179.9L438.8 193.5L408.1 251.6C405.7000000000001 256.4000000000001 402.6 258.8 399.5 258.8C396.4 258.8 393.3 256.4 390.9 251.6L360.3 193.5L297.1 179.9C286.5 178.3 284.1 171 291.8 163.4L338.2 123.9L327.5999999999999 53.3C325.7999999999999 42.6999999999999 332.0999999999999 38.1999999999999 341.5999999999999 43.1999999999999L399.3999999999999 88.8L457.2999999999999 43.1999999999999C466.7999999999999 38.1999999999999 473.0999999999999 42.6999999999999 471.2999999999999 53.3L460.6999999999999 123.9L507.1999999999999 163.5C514.8 171.1 512.4 178.4 501.8 179.9z" />
    <glyph glyph-name="stars-two"
      unicode="&#xE042;"
      horiz-adv-x="512" d=" M214.5 286.9L151.5 300.5L120.9 358.6C118.5 363.4 115.4 365.8 112.3 365.8C109.2 365.8 106.1 363.4 103.7 358.6L73.1 300.5L10.1 286.9C-0.5 285.3 -2.9 278 4.8 270.4L51 230.9L40.4 160.3C38.6 149.6999999999999 44.8 145.1999999999999 54.3 150.1999999999999L112.1 195.8L170 150.1999999999999C179.5 145.1999999999999 185.8 149.6999999999999 184 160.3L173.4 230.9L219.9 270.5C227.5 278.1 225.1 285.4 214.5 286.9z M501.7 286.9L438.7 300.5L408 358.6C405.6 363.4 402.5 365.8 399.4 365.8C396.3 365.8 393.2 363.4 390.8 358.6L360.2 300.5L297 286.9C286.4 285.3 284 278 291.7 270.4L338.1 230.9L327.5 160.3C325.7 149.6999999999999 332 145.1999999999999 341.5 150.1999999999999L399.3 195.8L457.1999999999999 150.1999999999999C466.6999999999999 145.1999999999999 472.9999999999999 149.6999999999999 471.1999999999999 160.3L460.5999999999999 230.9L507.0999999999999 270.5C514.7 278.1 512.3 285.4 501.7 286.9z" />
    <glyph glyph-name="two-stripes"
      unicode="&#xE043;"
      horiz-adv-x="512" d=" M128.8 214.1L128.9 170.9L128.9 98.4L179.2 98.5L179.2 412.8L128.9 412.7z M332.9 412.7L332.8 214.1L332.9 170.9L332.9 98.4L383.2 98.5L383.2 412.8z" />
    <glyph glyph-name="user"
      unicode="&#xE044;"
      horiz-adv-x="512" d=" M405.2 87.1C369 91.6 327.2 82.7000000000001 312.9 136.8C295.4 128.7 275.8 123.7 255.1 123.7C235.2 123.7 216.3 128.2 199.3 135.8C184.8 82.8 143.3 91.6 107.3 87.1C62.9 81.6 30 29.8 30 29.8C86.3 -1.1 256.2 0.2 256.2 0.2S426.1 -1.1 482.4 29.8C482.4 29.8 449.6 81.6 405.2 87.1z M451.4 274.6C451.4 274.6 427.9 276.5 412.5 310.7C407.3 322.2 417 429.3 368.1 474.9C318.7000000000001 520.9 208.3 526 177.8 475L176.8 475.6C176.8 475.6 176.6 474.8 175.9 473.1C135.7 482.3 114.5 452.8 114.5 410.8C114.5 361.4 102.6 355.9 102.6 355.9C111.4 358.2 118.9 361.3 125.7 364.8C125.7 325.5 125.7 272.9 125.7 257.9C125.7 204.1 183.9 144.1 255.8 144.1C327.6 144.1 385.9 204 385.9 257.9C385.9 263.5 385.9 274.2 385.9 287.3C407.7 279.7 429.9 274.6 451.4 274.6z" />
  </font>
</defs>
</svg>
